<svg width="16" height="16" viewBox="0 0 16 16" fill="none" xmlns="http://www.w3.org/2000/svg">
<path d="M3.9999 5.59941C4.88356 5.59941 5.5999 4.88307 5.5999 3.99941C5.5999 3.11576 4.88356 2.39941 3.9999 2.39941C3.11625 2.39941 2.3999 3.11576 2.3999 3.99941C2.3999 4.88307 3.11625 5.59941 3.9999 5.59941Z" fill="black"/>
<path d="M14.4 8.8V2.264C14.4 1.016 13.384 0 12.136 0C11.536 0 10.96 0.24 10.536 0.664L9.536 1.664C9.408 1.624 9.272 1.6 9.128 1.6C8.808 1.6 8.512 1.696 8.264 1.856L10.472 4.064C10.632 3.816 10.728 3.52 10.728 3.2C10.728 3.056 10.704 2.928 10.672 2.792L11.672 1.792C11.792 1.672 11.96 1.6 12.136 1.6C12.504 1.6 12.8 1.896 12.8 2.264V8.8H7.32C7.08 8.632 6.864 8.44 6.664 8.224L5.544 6.984C5.392 6.816 5.2 6.68 4.992 6.584C4.744 6.464 4.472 6.4 4.192 6.4C3.2 6.408 2.4 7.208 2.4 8.2V8.8H0V13.6C0 14.48 0.72 15.2 1.6 15.2C1.6 15.64 1.96 16 2.4 16H13.6C14.04 16 14.4 15.64 14.4 15.2C15.28 15.2 16 14.48 16 13.6V8.8H14.4Z" fill="black"/>
</svg>
