<svg width="24" height="24" viewBox="0 0 24 24" fill="none" xmlns="http://www.w3.org/2000/svg">
<path d="M21 9.99954H7V7.11254C7 6.11554 7.678 5.18954 8.661 5.02754C8.94813 4.97868 9.24245 4.99303 9.52347 5.06958C9.80448 5.14613 10.0654 5.28305 10.2881 5.47078C10.5108 5.65852 10.6898 5.89256 10.8128 6.15659C10.9357 6.42062 10.9996 6.70828 11 6.99954H13C12.9995 6.44084 12.8821 5.88842 12.6553 5.37784C12.4284 4.86725 12.0972 4.4098 11.683 4.03492C11.2687 3.66004 10.7806 3.37602 10.25 3.20114C9.71933 3.02627 9.15797 2.96441 8.602 3.01954C6.523 3.22154 5 5.08854 5 7.17754V9.99954H3C2.73478 9.99954 2.48043 10.1049 2.29289 10.2924C2.10536 10.48 2 10.7343 2 10.9995V12.9995C2 15.6055 3.674 17.8225 6 18.6495V21.9995H8V18.9995H16V21.9995H18V18.6495C20.326 17.8225 22 15.6055 22 12.9995V10.9995C22 10.7343 21.8946 10.48 21.7071 10.2924C21.5196 10.1049 21.2652 9.99954 21 9.99954Z" fill="white"/>
</svg>
