<svg width="22" height="16" viewBox="0 0 22 16" fill="none" xmlns="http://www.w3.org/2000/svg">
<path d="M7.7 10.0879C5.126 10.0879 0 11.3264 0 13.7927V15.645H15.4V13.7927C15.4 11.3264 10.274 10.0879 7.7 10.0879ZM2.574 13.528C3.498 12.9141 5.731 12.2049 7.7 12.2049C9.669 12.2049 11.902 12.9141 12.826 13.528H2.574ZM7.7 8.23559C9.823 8.23559 11.55 6.57376 11.55 4.53088C11.55 2.488 9.823 0.826172 7.7 0.826172C5.577 0.826172 3.85 2.488 3.85 4.53088C3.85 6.57376 5.577 8.23559 7.7 8.23559ZM7.7 2.94315C8.613 2.94315 9.35 3.65234 9.35 4.53088C9.35 5.40943 8.613 6.11861 7.7 6.11861C6.787 6.11861 6.05 5.40943 6.05 4.53088C6.05 3.65234 6.787 2.94315 7.7 2.94315ZM15.444 10.1515C16.72 11.0406 17.6 12.2261 17.6 13.7927V15.645H22V13.7927C22 11.6545 18.15 10.4372 15.444 10.1515ZM14.3 8.23559C16.423 8.23559 18.15 6.57376 18.15 4.53088C18.15 2.488 16.423 0.826172 14.3 0.826172C13.706 0.826172 13.156 0.963775 12.65 1.19664C13.343 2.1387 13.75 3.29245 13.75 4.53088C13.75 5.76931 13.343 6.92307 12.65 7.86512C13.156 8.09799 13.706 8.23559 14.3 8.23559Z" fill="#464646"/>
</svg>
