<svg width="42" height="42" viewBox="0 0 42 42" fill="none" xmlns="http://www.w3.org/2000/svg">
<rect width="42" height="42" rx="8" fill="#4DC28B" fill-opacity="0.45"/>
<path d="M31.47 15.7C31 15.46 30.51 15.26 30 15.09V27.12C28.86 26.71 27.69 26.5 26.5 26.5C24.6 26.5 22.72 27.04 21 28.08V15.98C19.38 15.05 17.51 14.5 15.5 14.5C13.71 14.5 12.02 14.94 10.53 15.7C10.2 15.86 10 16.21 10 16.58V28.66C10 29.24 10.47 29.65 11 29.65C11.16 29.65 11.32 29.61 11.48 29.53C12.69 28.9 14.05 28.5 15.5 28.5C17.57 28.5 19.48 29.32 21 30.5C22.52 29.32 24.43 28.5 26.5 28.5C27.95 28.5 29.31 28.9 30.52 29.54C30.68 29.62 30.84 29.66 31 29.66C31.52 29.66 32 29.25 32 28.67V16.58C32 16.21 31.8 15.86 31.47 15.7ZM19 27.12C17.86 26.71 16.69 26.5 15.5 26.5C14.31 26.5 13.14 26.71 12 27.12V17.21C13.11 16.74 14.28 16.5 15.5 16.5C16.7 16.5 17.89 16.75 19 17.22V27.12ZM28 11L23 16V25.5L28 21V11Z" fill="#28B775"/>
</svg>
