<svg width="21" height="20" viewBox="0 0 21 20" fill="none" xmlns="http://www.w3.org/2000/svg">
<path d="M17.3 14.5596C17.7 13.9112 18 13.1703 18 12.3367C18 10.0213 16 8.16894 13.5 8.16894C11 8.16894 9 10.0213 9 12.3367C9 14.6522 11 16.5045 13.5 16.5045C14.4 16.5045 15.2 16.2267 15.9 15.8562L19.1 18.82L20.5 17.5233L17.3 14.5596ZM13.5 14.6522C12.1 14.6522 11 13.6334 11 12.3367C11 11.0401 12.1 10.0213 13.5 10.0213C14.9 10.0213 16 11.0401 16 12.3367C16 13.6334 14.9 14.6522 13.5 14.6522ZM10 17.4307V19.2831C4.48 19.2831 0 15.1338 0 10.0213C0 4.9088 4.48 0.759521 10 0.759521C14.84 0.759521 18.87 3.94557 19.8 8.16894H17.73C17.09 5.89054 15.33 4.02893 13 3.15832V3.53805C13 4.55685 12.1 5.39041 11 5.39041H9V7.24276C9 7.75216 8.55 8.16894 8 8.16894H6V10.0213H8V12.7998H7L2.21 8.36344C2.08 8.90062 2 9.44706 2 10.0213C2 14.1057 5.59 17.4307 10 17.4307Z" fill="white"/>
</svg>
