<svg width="20" height="17" viewBox="0 0 20 17" fill="none" xmlns="http://www.w3.org/2000/svg">
<path d="M6 4.81201H4V11.2953C4 12.314 4.9 13.1476 6 13.1476H15V11.2953H6V4.81201Z" fill="#464646"/>
<path d="M18 0.181152H10C8.9 0.181152 8 1.01471 8 2.03351V7.59057C8 8.60937 8.9 9.44293 10 9.44293H18C19.1 9.44293 20 8.60937 20 7.59057V2.03351C20 1.01471 19.1 0.181152 18 0.181152ZM18 7.59057H10V3.88586H18V7.59057Z" fill="#464646"/>
<path d="M2 8.5166H0V14.9998C0 16.0186 0.9 16.8522 2 16.8522H11V14.9998H2V8.5166Z" fill="#464646"/>
</svg>
