<svg width="17" height="17" viewBox="0 0 17 17" fill="none" xmlns="http://www.w3.org/2000/svg">
<path d="M0 17H3.2381V7.87805H0V17ZM15.381 12.8537H9.71429L8.02238 12.2483L8.28952 11.4688L9.71429 12.0244H11.9971C12.5233 12.0244 12.9524 11.5849 12.9524 11.0459C12.9524 10.6395 12.7014 10.2746 12.329 10.1254L6.45191 7.87805H4.85714V15.358L10.5238 17L17 14.5122C16.9919 13.6 16.2795 12.8537 15.381 12.8537ZM10.5238 0L4.85714 4.14634V6.21951H6.47619L13.0657 8.92293C13.9724 9.2961 14.5714 10.1917 14.5714 11.1951H16.1905V4.14634L10.5238 0ZM10.119 7.04878H9.30952V6.21951H10.119V7.04878ZM10.119 5.39024H9.30952V4.56098H10.119V5.39024ZM11.7381 7.04878H10.9286V6.21951H11.7381V7.04878ZM11.7381 5.39024H10.9286V4.56098H11.7381V5.39024Z" fill="black"/>
</svg>
