<svg width="16" height="15" viewBox="0 0 16 15" fill="none" xmlns="http://www.w3.org/2000/svg">
<path d="M11.6 0C10.208 0 8.872 0.662125 8 1.70845C7.128 0.662125 5.792 0 4.4 0C1.936 0 0 1.9782 0 4.49591C0 7.58583 2.72 10.1035 6.84 13.9292L8 15L9.16 13.921C13.28 10.1035 16 7.58583 16 4.49591C16 1.9782 14.064 0 11.6 0ZM8.08 12.7112L8 12.7929L7.92 12.7112C4.112 9.18801 1.6 6.85831 1.6 4.49591C1.6 2.86104 2.8 1.63488 4.4 1.63488C5.632 1.63488 6.832 2.44414 7.256 3.56403H8.752C9.168 2.44414 10.368 1.63488 11.6 1.63488C13.2 1.63488 14.4 2.86104 14.4 4.49591C14.4 6.85831 11.888 9.18801 8.08 12.7112Z" fill="#707A89"/>
</svg>
