<svg width="23" height="27" viewBox="0 0 23 27" fill="none" xmlns="http://www.w3.org/2000/svg">
<path d="M5.1489 26.5232H0.380335V8.81518H5.1489V26.5232ZM2.76174 6.39967C1.23712 6.39967 0 4.94279 0 3.18468C0 2.34005 0.290968 1.53002 0.808895 0.932772C1.32682 0.335528 2.02928 0 2.76174 0C3.4942 0 4.19666 0.335528 4.71459 0.932772C5.23251 1.53002 5.52348 2.34005 5.52348 3.18468C5.52348 4.94279 4.28637 6.39967 2.76174 6.39967ZM22.9959 26.5232H18.238V17.9032C18.238 15.8486 18.2019 13.2142 15.7588 13.2142C13.2797 13.2142 12.8994 15.446 12.8994 17.7554V26.5232H8.13572V8.81518H12.7088V11.2307H12.7753C13.4119 9.83917 14.967 8.37092 17.2868 8.37092C22.1128 8.37092 23 12.0359 23 16.7958V26.5232H22.9959Z" fill="#FFC000"/>
</svg>
