<svg width="16" height="16" viewBox="0 0 16 16" fill="none" xmlns="http://www.w3.org/2000/svg">
<path d="M8.88889 0.618896H7.11111V8.85158H8.88889V0.618896ZM13.1822 2.40539L11.92 3.57443C13.3244 4.61998 14.2222 6.22536 14.2222 8.02832C14.2222 11.2144 11.44 13.7912 8 13.7912C4.56 13.7912 1.77778 11.2144 1.77778 8.02832C1.77778 6.22536 2.67556 4.61998 4.07111 3.5662L2.81778 2.40539C1.09333 3.76378 0 5.77256 0 8.02832C0 12.12 3.58222 15.4377 8 15.4377C12.4178 15.4377 16 12.12 16 8.02832C16 5.77256 14.9067 3.76378 13.1822 2.40539Z" fill="white"/>
</svg>
