<svg width="87" height="87" viewBox="0 0 87 87" fill="none" xmlns="http://www.w3.org/2000/svg">
<circle cx="43.5" cy="43.5" r="43.5" fill="#FA6755"/>
<path d="M57.8958 27.88C53.4371 29.2591 48.2096 29.8501 43.375 29.8501C38.5404 29.8501 33.3129 29.2591 28.8542 27.88L28 31.8201C31.1775 32.8051 34.8333 33.4552 38.25 33.7901V57.4302H41.6667V45.6101H45.0833V57.4302H48.5V33.7901C51.9167 33.4552 55.5725 32.8051 58.75 31.8201L57.8958 27.88ZM43.375 27.88C45.2542 27.88 46.7917 26.107 46.7917 23.94C46.7917 21.773 45.2542 20 43.375 20C41.4958 20 39.9583 21.773 39.9583 23.94C39.9583 26.107 41.4958 27.88 43.375 27.88ZM34.8333 67.2803H38.25V63.3402H34.8333V67.2803ZM41.6667 67.2803H45.0833V63.3402H41.6667V67.2803ZM48.5 67.2803H51.9167V63.3402H48.5V67.2803Z" fill="white"/>
</svg>
