<svg width="70" height="42" viewBox="0 0 70 42" fill="none" xmlns="http://www.w3.org/2000/svg">
<path fill-rule="evenodd" clip-rule="evenodd" d="M21 21C18.2152 21 15.5445 19.8938 13.5754 17.9246C11.6062 15.9555 10.5 13.2848 10.5 10.5C10.5 7.71523 11.6062 5.04451 13.5754 3.07538C15.5445 1.10625 18.2152 0 21 0C23.7848 0 26.4555 1.10625 28.4246 3.07538C30.3938 5.04451 31.5 7.71523 31.5 10.5C31.5 13.2848 30.3938 15.9555 28.4246 17.9246C26.4555 19.8938 23.7848 21 21 21ZM49 21C46.2152 21 43.5445 19.8938 41.5754 17.9246C39.6062 15.9555 38.5 13.2848 38.5 10.5C38.5 7.71523 39.6062 5.04451 41.5754 3.07538C43.5445 1.10625 46.2152 0 49 0C51.7848 0 54.4555 1.10625 56.4246 3.07538C58.3938 5.04451 59.5 7.71523 59.5 10.5C59.5 13.2848 58.3938 15.9555 56.4246 17.9246C54.4555 19.8938 51.7848 21 49 21ZM21 28C24.9731 27.9953 28.9015 28.8383 32.5228 30.4727C36.1442 32.1072 39.3752 34.4954 42 37.478V42H0V37.478C2.62484 34.4954 5.85581 32.1072 9.47716 30.4727C13.0985 28.8383 17.0269 27.9953 21 28ZM49 42V34.832L47.25 32.8475C45.9142 31.3327 44.4504 29.9357 42.875 28.672C44.8859 28.2241 46.9399 27.9988 49 28C52.9731 27.9953 56.9015 28.8383 60.5228 30.4727C64.1442 32.1072 67.3752 34.4954 70 37.478V42H49Z" fill="#252EBA"/>
</svg>
