<svg width="20" height="19" viewBox="0 0 20 19" fill="none" xmlns="http://www.w3.org/2000/svg">
<path d="M9.97 18.1754C11.07 18.1754 11.97 17.3419 11.97 16.3231H7.97C7.97 17.3419 8.87 18.1754 9.97 18.1754ZM15.97 12.6184V7.9875C15.97 5.14413 14.34 2.76386 11.47 2.13406V1.50426C11.47 0.735529 10.8 0.11499 9.97 0.11499C9.14 0.11499 8.47 0.735529 8.47 1.50426V2.13406C5.61 2.76386 3.97 5.13487 3.97 7.9875V12.6184L1.97 14.4707V15.3969H17.97V14.4707L15.97 12.6184ZM13.97 13.5446H5.97V7.9875C5.97 5.69058 7.48 3.8197 9.97 3.8197C12.46 3.8197 13.97 5.69058 13.97 7.9875V13.5446ZM5.55 1.57835L4.12 0.253917C1.72 1.94882 0.14 4.56064 0 7.52441H2C2.15 5.07004 3.51 2.92131 5.55 1.57835ZM17.94 7.52441H19.94C19.79 4.56064 18.21 1.94882 15.82 0.253917L14.4 1.57835C16.42 2.92131 17.79 5.07004 17.94 7.52441Z" fill="#464646"/>
</svg>
