<svg width="21" height="25" viewBox="0 0 21 25" fill="none" xmlns="http://www.w3.org/2000/svg">
<path d="M4.13 2.69076C4.2 3.88815 4.375 5.05863 4.655 6.17529L3.255 7.78975C2.77667 6.17529 2.47333 4.46666 2.36833 2.69076H4.13ZM15.6333 18.8622C16.625 19.1851 17.64 19.3869 18.6667 19.4676V21.4723C17.1267 21.3512 15.645 21.0014 14.2333 20.4632L15.6333 18.8622ZM5.25 0H1.16667C0.525 0 0 0.605421 0 1.34538C0 13.9785 8.87833 24.2168 19.8333 24.2168C20.475 24.2168 21 23.6114 21 22.8715V18.1761C21 17.4361 20.475 16.8307 19.8333 16.8307C18.3867 16.8307 16.975 16.5616 15.6683 16.0638C15.5517 16.01 15.4233 15.9966 15.3067 15.9966C15.0033 15.9966 14.7117 16.1311 14.4783 16.3867L11.9117 19.3466C8.61 17.3958 5.90333 14.2879 4.22333 10.4805L6.79 7.52067C7.11667 7.14397 7.21 6.61927 7.08167 6.14839C6.65 4.64156 6.41667 3.0271 6.41667 1.34538C6.41667 0.605421 5.89167 0 5.25 0Z" fill="#FFC000"/>
</svg>
