<svg width="27" height="6" viewBox="0 0 27 6" fill="none" xmlns="http://www.w3.org/2000/svg">
<path fill-rule="evenodd" clip-rule="evenodd" d="M6 3C6 4.65685 4.65685 6 3 6C1.34315 6 0 4.65685 0 3C0 1.34315 1.34315 0 3 0C4.65685 0 6 1.34315 6 3ZM16.5 3C16.5 4.65685 15.1569 6 13.5 6C11.8431 6 10.5 4.65685 10.5 3C10.5 1.34315 11.8431 0 13.5 0C15.1569 0 16.5 1.34315 16.5 3ZM24 6C25.6569 6 27 4.65685 27 3C27 1.34315 25.6569 0 24 0C22.3431 0 21 1.34315 21 3C21 4.65685 22.3431 6 24 6Z" fill="#AFC1D9"/>
</svg>
