<svg width="17" height="18" viewBox="0 0 17 18" fill="none" xmlns="http://www.w3.org/2000/svg">
<path d="M14.9946 10.1271C15.0296 9.86035 15.0558 9.59362 15.0558 9.31021C15.0558 9.0268 15.0296 8.76006 14.9946 8.49332L16.8384 7.11794C17.0044 6.99291 17.0481 6.76785 16.9433 6.58447L15.1956 3.70035C15.1169 3.56698 14.9684 3.49196 14.8111 3.49196C14.7587 3.49196 14.7062 3.5003 14.6625 3.51697L12.4867 4.35053C12.0323 4.0171 11.5429 3.74203 11.0099 3.53364L10.6778 1.3247C10.6516 1.12465 10.4681 0.974609 10.2496 0.974609H6.75424C6.53578 0.974609 6.35227 1.12465 6.32606 1.3247L5.99399 3.53364C5.46095 3.74203 4.9716 4.02544 4.5172 4.35053L2.34132 3.51697C2.28889 3.5003 2.23646 3.49196 2.18403 3.49196C2.03548 3.49196 1.88692 3.56698 1.80828 3.70035L0.0605851 6.58447C-0.0530148 6.76785 -0.000583993 6.99291 0.165447 7.11794L2.00926 8.49332C1.97431 8.76006 1.94809 9.03513 1.94809 9.31021C1.94809 9.58528 1.97431 9.86035 2.00926 10.1271L0.165447 11.5025C-0.000583993 11.6275 -0.0442764 11.8526 0.0605851 12.0359L1.80828 14.9201C1.88692 15.0534 2.03548 15.1285 2.19277 15.1285C2.2452 15.1285 2.29763 15.1201 2.34132 15.1034L4.5172 14.2699C4.9716 14.6033 5.46095 14.8784 5.99399 15.0868L6.32606 17.2957C6.35227 17.4958 6.53578 17.6458 6.75424 17.6458H10.2496C10.4681 17.6458 10.6516 17.4958 10.6778 17.2957L11.0099 15.0868C11.5429 14.8784 12.0323 14.595 12.4867 14.2699L14.6625 15.1034C14.715 15.1201 14.7674 15.1285 14.8198 15.1285C14.9684 15.1285 15.1169 15.0534 15.1956 14.9201L16.9433 12.0359C17.0481 11.8526 17.0044 11.6275 16.8384 11.5025L14.9946 10.1271ZM13.2644 8.70171C13.2993 8.96011 13.3081 9.13516 13.3081 9.31021C13.3081 9.48525 13.2906 9.66864 13.2644 9.9187L13.142 10.8606L13.9198 11.4441L14.8635 12.1443L14.2518 13.1529L13.142 12.7278L12.2332 12.3777L11.4468 12.9445C11.071 13.2113 10.7128 13.4113 10.3545 13.553L9.42821 13.9115L9.28839 14.8534L9.11362 15.9787H7.89024L7.72421 14.8534L7.58439 13.9115L6.65812 13.553C6.28236 13.403 5.93282 13.2113 5.58329 12.9612L4.78809 12.3777L3.86181 12.7361L2.75203 13.1613L2.14034 12.1526L3.08409 11.4525L3.86181 10.869L3.73947 9.92704C3.71326 9.66864 3.69578 9.47692 3.69578 9.31021C3.69578 9.14349 3.71326 8.95178 3.73947 8.70171L3.86181 7.75979L3.08409 7.17629L2.14034 6.4761L2.75203 5.4675L3.86181 5.89261L4.77061 6.24271L5.55707 5.67589C5.93283 5.40915 6.2911 5.20909 6.64938 5.06739L7.57565 4.70896L7.71547 3.76703L7.89024 2.64173H9.10488L9.27091 3.76703L9.41073 4.70896L10.337 5.06739C10.7128 5.21743 11.0623 5.40915 11.4118 5.65921L12.207 6.24271L13.1333 5.88428L14.2431 5.45916L14.8548 6.46777L13.9198 7.17629L13.142 7.75979L13.2644 8.70171ZM8.50193 5.97597C6.57073 5.97597 5.00655 7.46804 5.00655 9.31021C5.00655 11.1524 6.57073 12.6444 8.50193 12.6444C10.4331 12.6444 11.9973 11.1524 11.9973 9.31021C11.9973 7.46804 10.4331 5.97597 8.50193 5.97597ZM8.50193 10.9773C7.5407 10.9773 6.75424 10.2271 6.75424 9.31021C6.75424 8.39329 7.5407 7.64309 8.50193 7.64309C9.46316 7.64309 10.2496 8.39329 10.2496 9.31021C10.2496 10.2271 9.46316 10.9773 8.50193 10.9773Z" fill="#464646"/>
</svg>
