<svg width="17" height="17" viewBox="0 0 17 17" fill="none" xmlns="http://www.w3.org/2000/svg">
<path d="M14.5138 14.5138L13.3875 15.64L12.6331 14.8856L13.7594 13.7594L11.6981 11.6981L10.5719 12.8244L9.8175 12.07L10.9438 10.9438L8.8825 8.8825L7.75625 10.0087L7.00187 9.25438L8.12812 8.12812L6.05625 6.05625L4.93 7.1825L4.17562 6.42813L5.30187 5.30187L3.24063 3.24063L2.11437 4.36687L1.36 3.6125L2.48625 2.48625L0 0V14.875C0 16.0438 0.95625 17 2.125 17H17L14.5138 14.5138ZM3.1875 13.8125V7.6925L9.3075 13.8125H3.1875Z" fill="black"/>
</svg>
