<svg width="23" height="22" viewBox="0 0 23 22" fill="none" xmlns="http://www.w3.org/2000/svg">
<path d="M22.7061 2.98487C21.8711 3.41155 20.9741 3.69985 20.031 3.83016C21.0041 3.15877 21.732 2.10208 22.0791 0.857254C21.1649 1.48342 20.1644 1.92417 19.121 2.16035C18.4194 1.29646 17.4901 0.72386 16.4774 0.531449C15.4646 0.339038 14.4251 0.537582 13.5203 1.09625C12.6154 1.65493 11.8958 2.54247 11.4732 3.62109C11.0506 4.69971 10.9486 5.90906 11.183 7.06138C9.33071 6.95412 7.51865 6.39893 5.86444 5.43182C4.21023 4.46471 2.75085 3.1073 1.581 1.44768C1.181 2.24338 0.951002 3.16593 0.951002 4.14844C0.950556 5.03292 1.13944 5.90386 1.50088 6.68398C1.86233 7.46409 2.38517 8.12927 3.02301 8.62048C2.28328 8.59334 1.55988 8.36284 0.913002 7.94817V8.01736C0.912928 9.25789 1.28504 10.4602 1.96619 11.4204C2.64734 12.3806 3.59558 13.0394 4.65001 13.2851C3.96379 13.4993 3.24435 13.5308 2.54601 13.3774C2.8435 14.4448 3.423 15.3782 4.20338 16.0469C4.98375 16.7156 5.92593 17.0862 6.89802 17.1067C5.24785 18.6006 3.20989 19.4109 1.112 19.4073C0.740383 19.4075 0.369077 19.3824 0 19.3324C2.12948 20.9113 4.60835 21.7493 7.14002 21.746C15.71 21.746 20.395 13.5607 20.395 6.46172C20.395 6.23108 20.39 5.99814 20.381 5.7675C21.2923 5.00753 22.079 4.06644 22.7041 2.98833L22.7061 2.98487Z" fill="#FFC000"/>
</svg>
